<?xml version="1.0" encoding="UTF-8"?>
<!DOCTYPE svg PUBLIC "-//W3C//DTD SVG 1.1//EN" "http://www.w3.org/Graphics/SVG/1.1/DTD/svg11.dtd">
<!-- Creator: CorelDRAW 2018 (64-Bit) -->
<svg xmlns="http://www.w3.org/2000/svg" xml:space="preserve" width="43.3492mm" height="41.8252mm" version="1.1" style="shape-rendering:geometricPrecision; text-rendering:geometricPrecision; image-rendering:optimizeQuality; fill-rule:evenodd; clip-rule:evenodd"
viewBox="0 0 4334.92 4182.52"
 xmlns:xlink="http://www.w3.org/1999/xlink">
 <defs>
  <style type="text/css">
   <![CDATA[
    .fil0 {fill:white}
   ]]>
  </style>
 </defs>
 <g id="Слой_x0020_1">
  <metadata id="CorelCorpID_0Corel-Layer"/>
  <path class="fil0" d="M2406.41 1599.39c7.7,3.4 15.12,7.04 22.27,10.93 39.05,19.96 75.21,45.18 107.52,74.93 51.01,45.23 91.42,101.27 118.1,164.08 22.27,52.61 34.51,108.86 36.43,165.96l0 5.87 980 -1122.92 13.47 -15.48 608.66 -698.77c44.81,-51.39 51.55,-97.52 30.93,-136.22 -1.11,-0.32 -2.06,-0.87 -2.89,-1.63 -0.83,-0.75 -1.37,-1.68 -1.79,-2.71 -1.92,-4.44 -4.39,-8.68 -7.15,-12.69 -5.63,-7.1 -12.09,-13.64 -19.1,-19.51 -12.52,-8.01 -27.37,-11.9 -42.22,-11.14l-596.27 0c-50.05,-0.04 -99.82,4.01 -149.17,12.07 -163.47,59.58 -309.76,158.69 -425.8,288.55 -244.03,280.04 -456.31,736.89 -604.52,1112.87l-68.47 185.81zm-245.55 1031.25c196.19,0 368.33,-104.41 463.74,-260.89l302.61 609.85c5.09,15.47 7.7,25.8 7.7,30.96 0,25.8 -9.08,49.02 -27.09,69.66 -20.48,23.22 -44.95,34.83 -73.28,34.83l-478.45 0c-48.81,0 -83.59,-23.22 -104.08,-69.65l-223.82 -431.11c42.49,10.68 86.89,16.35 132.67,16.35zm-254.62 -58.44c7.15,3.89 14.57,7.53 22.28,10.93l-68.47 185.81c-148.16,375.99 -360.52,832.83 -604.46,1112.87 -116.15,129.85 -262.44,228.97 -425.92,288.55 -49.27,8.06 -99.12,12.09 -149.06,12.07l-596.29 0c-14.9,0.76 -29.67,-3.13 -42.27,-11.15 -7,-5.86 -13.41,-12.4 -19.14,-19.49 -2.75,-4.02 -5.12,-8.27 -7.1,-12.7 -0.38,-1.03 -1,-1.97 -1.81,-2.71 -0.79,-0.76 -1.77,-1.31 -2.82,-1.63 -20.68,-38.7 -13.89,-84.83 30.87,-136.21l608.61 -698.78 13.59 -15.47 979.92 -1122.93 0 5.87c1.9,57.1 14.24,113.35 36.41,165.96 26.78,62.81 67.14,118.85 118.14,164.08 32.31,29.75 68.47,54.97 107.52,74.93zm-428.12 720.75c-18.27,71.98 -42,142.48 -70.99,210.84 -58.06,135.24 -136.79,260.6 -233.33,371.51 64.59,-128.39 119.97,-261.23 165.74,-397.52 16.98,-52.94 30.87,-106.82 43.21,-161.3l-273.44 303.09 296.59 -419.5c8.02,-45.01 14.81,-90.2 20.37,-135.6l-250.61 280.49 -70.68 81.12 58.02 -81.43 274.07 -382.97 2.16 1.86 11.42 -114.55c0,-4.35 0.69,-8.7 1.36,-12.96l0 0c0.44,-2.74 0.87,-5.44 1.1,-8.11l-372.81 425.39 386.09 -529.41c4.01,-30.96 8.64,-61.92 14.51,-92.87 3.08,-17.03 6.17,-34.07 9.57,-51.09l-412.97 476.47 154.33 -208.36 292.59 -397.84c24.23,-81.03 58.22,-158.79 101.22,-231.58 -21.3,77.15 -37.88,155.52 -49.68,234.68 -0.62,4.03 -1.28,8.05 -1.93,12.08 -1.3,8.05 -2.6,16.1 -3.63,24.15 -7.1,50.15 -12.96,100.61 -16.97,151.07 -1.41,20.42 -2.9,40.83 -4.39,61.3l0 0.01c-3.73,51.23 -7.47,102.76 -10.12,155.42 -3.7,73.69 -11.11,145.2 -19.75,216.72 -3.39,23.51 -7.1,47.32 -10.79,71.14l0 0.02 0 0.05c-8.66,49.85 -18.22,99.07 -30.26,147.68zm-137.69 -2053.99l374.47 754.84c-6.01,29.62 -9.17,60.27 -9.17,91.67 0,252.12 203.81,456.5 455.13,456.5 251.33,0 455.08,-204.38 455.08,-456.5 0,-218.82 -153.57,-401.66 -358.28,-446.18l-241.98 -466.14c-20.62,-46.44 -55.27,-69.67 -104.21,-69.67l-478.44 0c-28.3,0 -52.72,11.62 -73.31,34.84 -18.01,20.64 -27.01,43.87 -27.01,69.67 0,5.17 2.57,15.48 7.72,30.97zm820.43 1020.57c95.83,0 173.51,-77.93 173.51,-174.06 0,-96.15 -77.68,-174.07 -173.51,-174.07 -95.82,0 -173.51,77.92 -173.51,174.07 0,96.13 77.69,174.06 173.51,174.06zm766.9 -1580.8c-29.01,68.36 -52.66,138.85 -70.94,210.84 -12.1,48.61 -21.6,97.84 -30.25,147.68l0 0.05 0 0.02c-3.72,23.82 -7.42,47.63 -10.86,71.14 -8.53,71.52 -15.95,143.04 -19.66,216.72 -2.61,52.66 -6.47,104.19 -10.18,155.42l0 0.01c-1.51,20.47 -3.02,40.88 -4.4,61.3 -3.98,50.46 -9.9,100.92 -16.91,151.07 -1.1,8.05 -2.33,16.1 -3.71,24.15 -0.55,4.03 -1.24,8.05 -1.92,12.08 -11.69,79.16 -28.33,157.53 -49.63,234.68 43.03,-72.79 76.99,-150.55 101.18,-231.58l292.57 -397.84 154.4 -208.37 -413.01 476.48c3.44,-17.02 6.47,-34.06 9.62,-51.09 5.78,-30.95 10.45,-61.91 14.44,-92.87l386.2 -529.42 -372.86 425.39c0.28,-2.65 0.69,-5.36 1.1,-8.1l0 0c0.69,-4.27 1.37,-8.61 1.37,-12.95l11.41 -114.55 2.2 1.85 274.01 -382.97 58.02 -81.43 -70.67 81.12 -250.63 280.5c5.63,-45.41 12.37,-90.62 20.35,-135.61l296.69 -419.5 -273.46 303.09c12.24,-54.49 26.13,-108.36 43.17,-161.3 45.78,-136.29 101.19,-269.13 165.67,-397.53 -96.51,110.94 -175.16,236.28 -233.31,371.52z"/>
 </g>
</svg>
