<?xml version="1.0" encoding="UTF-8"?>
<!DOCTYPE svg PUBLIC "-//W3C//DTD SVG 1.1//EN" "http://www.w3.org/Graphics/SVG/1.1/DTD/svg11.dtd">
<!-- Creator: CorelDRAW 2018 (64-Bit) -->
<svg xmlns="http://www.w3.org/2000/svg" xml:space="preserve" width="86.6986mm" height="82.8038mm" version="1.1" style="shape-rendering:geometricPrecision; text-rendering:geometricPrecision; image-rendering:optimizeQuality; fill-rule:evenodd; clip-rule:evenodd"
viewBox="0 0 8669.86 8280.38"
 xmlns:xlink="http://www.w3.org/1999/xlink">
 <defs>
  <style type="text/css">
   <![CDATA[
    .fil10 {fill:#0273F5}
    .fil14 {fill:#04FFFF}
    .fil13 {fill:#39B96F}
    .fil0 {fill:#67C3F2}
    .fil7 {fill:#B3EAFF}
    .fil12 {fill:white}
    .fil15 {fill:#063468}
    .fil8 {fill:#2DA3C9}
    .fil6 {fill:#3EB0D5}
    .fil2 {fill:#6BC6E1}
    .fil4 {fill:#6EC5E3}
    .fil1 {fill:#6FC5E0}
    .fil11 {fill:#7EB9FB}
    .fil5 {fill:#82D9F5}
    .fil9 {fill:#DEF7FE}
    .fil3 {fill:white}
   ]]>
  </style>
 </defs>
 <g id="Слой_x0020_1">
  <metadata id="CorelCorpID_0Corel-Layer"/>
  <ellipse class="fil0" cx="4339.82" cy="4077.8" rx="4077.87" ry="4077.81"/>
  <path class="fil1" d="M1185.22 6661.82c18.56,-4.37 37.11,-8.75 53.2,-12.38 16.15,-3.65 29.82,-6.57 64.57,-30.45 34.74,-23.87 90.57,-68.72 104.6,-117.6 14.02,-48.88 -13.76,-101.79 -56.09,-166.4l-2.64 -4c211.8,-31.24 460.42,-31.42 797.05,-15.31 480.3,22.99 1139.76,79.1 1715.02,115.48 575.25,36.38 1066.32,53.02 1582.44,121.38 516.13,68.37 1057.33,188.47 1498.79,265.43 80.62,14.06 157.9,26.67 230.28,39.42 -15.18,11.91 -27.12,24.72 -34.35,37.32 -15.87,27.67 -9.04,54.35 -0.34,70.24 8.7,15.89 19.27,21 28.88,23.91 8.58,2.61 16.4,3.48 24.14,4.15 -735.25,719.12 -1741.23,1162.59 -2850.95,1162.59 -1271.37,0 -2406.74,-581.9 -3154.6,-1493.78z"/>
  <path class="fil2" d="M7386.52 6787.86c-69.44,-2.37 -140.02,-6.07 -212.67,-12.19 -160.72,-13.53 -331.58,-38.91 -493.13,-72.74 -161.56,-33.83 -313.81,-76.13 -486.63,-118.37 -172.82,-42.24 -366.21,-84.44 -590.37,-135.19 -224.14,-50.75 -479.07,-110.06 -698.73,-166.77 -219.65,-56.73 -404.05,-110.86 -636.67,-198.83 -232.6,-87.96 -513.43,-209.77 -790.87,-301.96 -277.44,-92.2 -551.5,-154.79 -859.81,-148.88 -308.32,5.93 -650.9,80.36 -993.82,156.52 -295.44,65.6 -591.12,132.48 -886.86,199.53 -103.57,-194.83 -191.92,-398.97 -263.23,-610.95 110.76,-50.73 233.53,-99.8 369.57,-148.52 363.71,-130.26 822.25,-258 1270.6,-357.39 448.33,-99.41 886.48,-170.46 1322.1,-205.99 435.62,-35.52 868.7,-35.52 1272.07,34.9 403.39,70.42 777.05,211.24 1227.05,439.62 450,228.38 976.32,544.31 1302.93,772.48 289.33,202.14 421.91,335.39 491.91,431.39 -104.35,155.72 -219.21,303.78 -343.44,443.34z"/>
  <path class="fil3" d="M7389.38 6787.96c-62.91,70.66 -128.24,139.12 -195.83,205.29 -52.17,-4.43 -110.16,-9.25 -177.45,-14.67 -179.75,-14.47 -425.89,-33.27 -656.81,-67.1 -230.92,-33.84 -446.61,-82.71 -835.29,-146.05 -388.67,-63.34 -950.32,-141.16 -1588.58,-179.53 -638.26,-38.37 -1353.14,-37.28 -1796.37,-25.44 -443.23,11.84 -614.81,34.44 -757.28,60.12 -72.69,13.11 -137.81,27.01 -199.21,41.31 -170.43,-207.98 -320.66,-433.12 -447.79,-672.41l0.06 -0.02c296.44,-67.21 592.85,-134.26 888.99,-200.02 342.93,-76.15 685.5,-150.58 993.81,-156.5 308.32,-5.92 582.38,56.67 859.82,148.87 203.45,67.61 408.72,151.14 595.47,225.57 16.57,-14.73 38.4,-23.67 62.31,-23.67 48.84,0 88.96,37.28 93.47,84.93 13.35,5.14 26.57,10.19 39.63,15.13 12.96,4.91 25.77,9.7 38.45,14.4 23.03,-34.94 62.61,-58 107.59,-58 60.2,0 110.75,41.31 124.85,97.13 9.15,-3.33 19.01,-5.15 29.3,-5.15 8.67,0 17.03,1.29 24.92,3.69 2.68,-42.43 37.93,-76.01 81.03,-76.01 44.85,0 81.2,36.36 81.2,81.2 0,7.66 -1.06,15.08 -3.04,22.1 18.75,15.12 30.76,38.28 30.76,64.24 0,7.69 -1.06,15.13 -3.03,22.19 40.63,11.09 81.96,22.02 124.63,33.04 219.66,56.72 474.58,116.02 698.74,166.77 224.15,50.76 417.53,92.95 590.35,135.19 172.82,42.25 325.08,84.54 486.64,118.37 161.56,33.84 332.42,59.21 493.13,72.74 73.61,6.2 145.08,9.92 215.4,12.28l0.13 0.01zm-2922.99 -1019.94c49.05,0 88.81,39.76 88.81,88.81 0,49.05 -39.76,88.81 -88.81,88.81 -49.05,0 -88.82,-39.76 -88.82,-88.81 0,-49.05 39.77,-88.81 88.82,-88.81zm-187.15 -262.64c31.89,0 57.73,25.85 57.73,57.73 0,31.88 -25.84,57.73 -57.73,57.73 -31.88,0 -57.73,-25.85 -57.73,-57.73 0,-31.88 25.85,-57.73 57.73,-57.73zm-241.7 -71.05c38.54,0 69.78,31.24 69.78,69.78 0,38.54 -31.24,69.79 -69.78,69.79 -38.54,0 -69.78,-31.25 -69.78,-69.79 0,-38.54 31.24,-69.78 69.78,-69.78zm-88.5 -218.51c39.57,0 71.66,32.08 71.66,71.66 0,39.58 -32.09,71.66 -71.66,71.66 -39.58,0 -71.66,-32.08 -71.66,-71.66 0,-39.58 32.08,-71.66 71.66,-71.66zm-153.84 237.54c30.83,0 55.83,25 55.83,55.83 0,30.83 -25,55.82 -55.83,55.82 -30.83,0 -55.83,-24.99 -55.83,-55.82 0,-30.83 25,-55.83 55.83,-55.83zm269.62 274.06c24.17,0 43.77,19.59 43.77,43.77 0,24.17 -19.6,43.77 -43.77,43.77 -24.18,0 -43.78,-19.6 -43.78,-43.77 0,-24.18 19.6,-43.77 43.78,-43.77zm-3164.4 -518.07c183.98,-111.76 429.69,-204.86 757.96,-266.83 118.51,-22.37 247.82,-40.66 385.4,-54.65 -402.53,91.67 -808.84,205.02 -1143.36,321.48z"/>
  <path class="fil4" d="M8216.78 5344.57c-217.34,-7.37 -441.72,-22.79 -680.83,-54.99 -458.52,-61.75 -971.18,-185.26 -1296.03,-302 -324.86,-116.74 -461.91,-226.72 -598.95,-336.69 50.44,-36.07 100.89,-72.16 151.34,-108.23 416.53,-73.9 833.06,-147.8 1142.85,-192.37 309.78,-44.55 512.81,-59.78 720.92,-59.78 208.1,0 421.29,15.23 567.65,31.29 76.81,8.44 135.2,17.11 184.85,25.88 -22.68,345.82 -88.28,679.89 -191.8,996.89z"/>
  <path class="fil5" d="M7667.08 6435.9c-74.6,-14.63 -160.29,-31.73 -269.93,-56.09 -167.47,-37.22 -390.78,-91.36 -590.4,-155.64 -199.63,-64.29 -375.56,-138.71 -568.42,-218.22 -192.85,-79.52 -402.63,-164.1 -591.12,-299.64 -188.49,-135.53 -355.71,-322.02 -643.53,-452.44 -287.82,-130.43 -696.25,-204.8 -1104.93,-257.04 -408.68,-52.25 -817.62,-82.36 -1226.78,-60.2 -409.18,22.16 -818.57,96.6 -1244.89,255.62 -309.61,115.49 -628.14,275.57 -871.52,407.08 -137.17,-340.82 -229.59,-704.42 -270.15,-1083.54 153.74,-99.35 350.25,-180.35 564.92,-265.42 308.4,-122.23 654.26,-252.9 1065.78,-264.66 411.52,-11.75 888.72,95.44 1416.69,250.05 527.97,154.63 1106.74,356.7 1812.19,587.08 705.44,230.39 1537.59,489.11 2134.54,695.24 311.28,107.49 558.56,200.67 756.6,283.58 -104.23,223.11 -227.82,435.34 -369.05,634.24z"/>
  <path class="fil1" d="M7858.43 6139.67c-191.21,-29.33 -391.74,-67.2 -628.1,-138.14 -319.08,-95.77 -703.48,-251.81 -1014.81,-402.72 -311.34,-150.9 -549.61,-296.69 -790.49,-431.83 -240.87,-135.14 -484.36,-259.63 -727.86,-384.13 -39.66,-38.7 -79.34,-77.4 -119.01,-116.11 321.41,72.87 642.8,145.73 1121.1,220.9 478.29,75.19 1113.47,152.68 1656.91,185.51 339.72,20.52 643.59,23.58 934.03,20.11 -95.41,371.96 -242.04,723.35 -431.77,1046.41z"/>
  <path class="fil6" d="M8146.21 5543.13c-64.87,5.86 -129.61,11.19 -194.17,15.77 -191.16,13.53 -380.64,20.29 -655.3,1.32 -274.66,-18.96 -634.51,-63.67 -934.96,-118.79 -300.44,-55.12 -541.46,-120.66 -828.83,-251.51 -287.37,-130.86 -621.08,-327.01 -1248,-481.85 -626.91,-154.84 -1547.03,-268.35 -2070.5,-316.15 -523.46,-47.82 -650.28,-29.92 -778.55,12.57 -128.28,42.48 -258.02,109.55 -383.79,175.21 -125.77,65.69 -247.57,129.96 -386.29,226.39 -91.54,63.64 -190.46,141.27 -291.88,223.66 -66.19,-276.73 -104.24,-564.37 -110.83,-859.79 42.59,-31.71 90.14,-63.44 142.77,-95.25 282.52,-170.87 711.08,-344.82 1181.14,-406.5 470.06,-61.67 981.64,-11.08 1771.87,186.69 790.23,197.78 1859.12,542.72 2675.66,751.58 816.54,208.85 1380.74,281.61 1707.04,303.13 326.3,21.51 414.71,-8.23 513.04,-39.37 29.62,-9.39 60.15,-18.9 91.3,-28.5 -45.94,242.02 -113.09,476.52 -199.72,701.39z"/>
  <path class="fil7" d="M7824.04 6197.54c-208.54,34.09 -421.67,69.19 -667.77,111.41 -285.9,49.06 -616.3,107.76 -1093.62,203.08 -477.32,95.34 -1101.56,227.28 -1621.92,336.46 -520.34,109.17 -936.79,195.57 -1180.4,248.86 -243.61,53.29 -314.37,73.47 -547.69,103.86 -225.17,29.33 -601.75,68.16 -878.68,93.66 -84.01,-65.53 -165.42,-134.25 -243.98,-206.03 115.21,-11.53 238.31,-24.92 374.91,-41.53 -0.52,-4.21 -0.78,-8.49 -0.78,-12.84 0,-57.47 46.57,-104.05 104.03,-104.05 52.92,0 96.6,39.51 103.18,90.64 115.17,-15.26 239.76,-32.77 376.29,-53.1 653,-97.27 1578.91,-259.38 2301.54,-378.5 722.64,-119.12 1242.01,-195.25 1627.71,-252.76 385.71,-57.53 637.77,-96.43 873.77,-131.95 178.34,-26.86 347.47,-51.76 514.37,-76.19 -13.47,23.12 -27.05,46.16 -40.96,68.98zm-6497.62 409.82c43.09,0 78.03,34.93 78.03,78.03 0,43.08 -34.94,78.02 -78.03,78.02 -43.11,0 -78.04,-34.94 -78.04,-78.02 0,-43.1 34.93,-78.03 78.04,-78.03zm378.41 4.44c40.81,0 73.91,33.09 73.91,73.91 0,40.81 -33.1,73.9 -73.91,73.9 -40.82,0 -73.9,-33.09 -73.9,-73.9 0,-40.82 33.08,-73.91 73.9,-73.91zm229.97 75.49c46.25,0 83.74,37.5 83.74,83.74 0,46.25 -37.49,83.73 -83.74,83.73 -46.25,0 -83.74,-37.48 -83.74,-83.73 0,-46.24 37.49,-83.74 83.74,-83.74z"/>
  <path class="fil8" d="M8334.11 4902.98c-8.94,2.04 -18.21,4.12 -27.88,6.25 -84.58,18.61 -198.66,40.63 -326.76,51.64 -128.09,11 -270.19,11 -432.6,2.54 -162.39,-8.45 -345.1,-25.38 -555.62,-64.89 -210.5,-39.5 -448.81,-101.61 -820.14,-181.11 -371.33,-79.51 -875.69,-176.43 -1488.53,-321.31 -612.83,-144.87 -1334.17,-337.71 -1843.77,-435.19 -509.61,-97.48 -807.5,-99.6 -988.38,-94.13 -180.87,5.47 -244.75,18.53 -361.92,57.65 -117.18,39.12 -287.65,104.28 -447.33,191.85 -159.67,87.56 -308.54,197.52 -445.57,301.57 -103.08,78.26 -199.46,153.16 -294.19,227.26 -25.81,-185.44 -39.47,-374.76 -39.47,-567.31 0,-22.32 0.48,-44.52 0.84,-66.75 99.7,-116.22 198.09,-228.23 291.38,-324.02 126.03,-129.41 242.76,-229.22 345.95,-309.57 103.19,-80.37 192.86,-141.26 279.98,-192.86 87.13,-51.59 171.71,-93.88 257.13,-126.88 85.45,-32.98 171.72,-56.67 218.25,-81.19 46.52,-24.54 53.27,-49.9 63.43,-67.67 10.14,-17.77 23.68,-27.91 62.56,-37.36 38.88,-9.44 103.11,-18.16 167.34,-26.89 675.69,177.39 1351.4,354.77 2148.24,645.03 796.81,290.26 1714.77,693.39 2247.34,925.42 532.56,232.01 679.74,292.91 842.15,339.43 162.41,46.52 340.04,78.66 493.13,93.89 153.11,15.23 281.67,13.54 408.56,-4.23 89.89,-12.58 178.92,-33.23 267.71,-56.24 -6.77,38.53 -13.99,76.91 -21.83,115.07z"/>
  <path class="fil9" d="M548.02 2822.62c17.87,0 34.25,6.37 47,16.98 1.75,-49.61 42.52,-89.29 92.56,-89.29 33.44,0 62.73,17.71 79.02,44.28 11.78,-6.95 23.58,-13.82 35.4,-20.6 54.15,-31.06 108.81,-60.41 164.89,-88.75 -1.98,-9.08 -3.03,-18.51 -3.03,-28.2 0,-58.98 38.69,-108.91 92.08,-125.81 18.35,-48.43 65.15,-82.86 120,-82.86 7.97,0 15.77,0.74 23.34,2.13 23.25,-27.66 57.8,-45.5 96.53,-46.39 -0.52,-4.86 -0.8,-9.79 -0.8,-14.78 0,-74.27 60.21,-134.49 134.49,-134.49 3.86,0 7.68,0.17 11.46,0.49 1.5,-67.04 48.65,-122.84 111.58,-137.53 -9.33,-18.04 -14.61,-38.53 -14.61,-60.25 0,-72.55 58.82,-131.37 131.37,-131.37 72.55,0 131.38,58.82 131.38,131.37 0,58.8 -38.63,108.56 -91.9,125.33 13.58,22.04 21.42,47.99 21.42,75.76 0,15.53 -2.46,30.49 -6.98,44.51 26.72,18.78 46.51,46.76 54.77,79.33 92.2,-18.74 185.38,-31.45 282.57,-39.42 154.79,-12.69 319.77,-13.34 485.16,59.08 165.38,72.42 331.17,217.9 311,441.77 -6.28,69.63 -30.55,146.86 -70.2,226.18 -284.77,-80.31 -561.25,-152.89 -837.71,-225.48 -64.23,8.73 -128.46,17.45 -167.34,26.89 -38.88,9.45 -52.42,19.59 -62.56,37.36 -10.16,17.77 -16.91,43.13 -63.43,67.67 -46.53,24.52 -132.8,48.21 -218.25,81.19 -85.42,33 -170,75.29 -257.13,126.88 -87.12,51.6 -176.79,112.49 -279.98,192.86 -103.19,80.35 -219.92,180.16 -345.95,309.57 -93.29,95.79 -191.68,207.8 -291.38,324.02 5.2,-323.64 47.94,-638.12 124.34,-939.24 19.14,-17.3 38.51,-34.36 57.91,-50.83 23.86,-20.25 47.74,-39.6 71.68,-58.15 -24.99,-11.76 -42.3,-37.16 -42.3,-66.61 0,-40.65 32.95,-73.6 73.6,-73.6zm7759.63 1666.17c-12.15,0 -23.48,3.53 -33.02,9.6 -27.18,-44.56 -76.23,-74.3 -132.25,-74.3 -12.77,0 -25.17,1.56 -37.04,4.46 -3.55,-49.3 -44.69,-88.2 -94.91,-88.2 -52.55,0 -95.15,42.6 -95.15,95.15 0,47.52 34.84,86.91 80.35,94.02 -5.21,15.5 -8.04,32.09 -8.04,49.35 0,85.49 69.3,154.8 154.79,154.8 74.72,0 137.05,-52.94 151.59,-123.33 4.4,1 8.97,1.53 13.68,1.53 33.98,0 61.53,-27.56 61.53,-61.54 0,-33.98 -27.55,-61.54 -61.53,-61.54zm-263.28 972.2c39.24,0 71.05,31.8 71.05,71.04 0,39.25 -31.81,71.05 -71.05,71.05 -39.24,0 -71.05,-31.8 -71.05,-71.05 0,-39.24 31.81,-71.04 71.05,-71.04zm14.59 -270.25c31.89,0 57.73,25.85 57.73,57.72 0,31.89 -25.84,57.74 -57.73,57.74 -31.88,0 -57.73,-25.85 -57.73,-57.74 0,-31.87 25.85,-57.72 57.73,-57.72zm164.95 -181.44c31.52,0 57.09,25.56 57.09,57.1 0,31.53 -25.57,57.09 -57.09,57.09 -31.53,0 -57.1,-25.56 -57.1,-57.09 0,-31.54 25.57,-57.1 57.1,-57.1zm-191.91 -20.93c39.77,0 72,32.23 72,72 0,39.77 -32.23,72 -72,72 -39.77,0 -72,-32.23 -72,-72 0,-39.77 32.23,-72 72,-72zm-173.51 174.45c19.27,0 34.9,15.63 34.9,34.89 0,19.28 -15.63,34.89 -34.9,34.89 -19.27,0 -34.89,-15.61 -34.89,-34.89 0,-19.26 15.62,-34.89 34.89,-34.89zm-147.06 -261.72c44.07,0 79.8,35.73 79.8,79.8 0,44.06 -35.73,79.79 -79.8,79.79 -44.06,0 -79.79,-35.73 -79.79,-79.79 0,-44.07 35.73,-79.8 79.79,-79.8zm210.19 -213.11c46.24,0 83.73,37.49 83.73,83.74 0,46.25 -37.49,83.74 -83.73,83.74 -46.25,0 -83.74,-37.49 -83.74,-83.74 0,-46.25 37.49,-83.74 83.74,-83.74zm-329.88 -187.78c39.23,0 71.05,31.82 71.05,71.05 0,39.25 -31.82,71.06 -71.05,71.06 -39.25,0 -71.05,-31.81 -71.05,-71.06 0,-39.23 31.8,-71.05 71.05,-71.05zm-3518.35 -2976.51c33.63,0 60.89,27.26 60.89,60.89 0,33.64 -27.26,60.91 -60.89,60.91 -33.64,0 -60.91,-27.27 -60.91,-60.91 0,-33.63 27.27,-60.89 60.91,-60.89zm166.84 -110.39c28.38,0 51.38,23.01 51.38,51.38 0,28.39 -23,51.39 -51.38,51.39 -28.38,0 -51.39,-23 -51.39,-51.39 0,-28.37 23.01,-51.38 51.39,-51.38zm-641.06 -373.97c52.56,0 95.17,42.61 95.17,95.16 0,52.56 -42.61,95.15 -95.17,95.15 -52.54,0 -95.15,-42.59 -95.15,-95.15 0,-52.55 42.61,-95.16 95.15,-95.16zm-197.92 111.65c36.43,0 65.97,29.54 65.97,65.98 0,36.44 -29.54,65.97 -65.97,65.97 -36.45,0 -65.98,-29.53 -65.98,-65.97 0,-36.44 29.53,-65.98 65.98,-65.98zm186.5 226.48c35.39,0 64.08,28.69 64.08,64.06 0,35.4 -28.69,64.09 -64.08,64.09 -35.37,0 -64.06,-28.69 -64.06,-64.09 0,-35.37 28.69,-64.06 64.06,-64.06zm-312.12 31.08c46.25,0 83.75,37.49 83.75,83.74 0,46.25 -37.5,83.73 -83.75,83.73 -46.24,0 -83.73,-37.48 -83.73,-83.73 0,-46.25 37.49,-83.74 83.73,-83.74zm-1866.42 534.18c18.21,0 32.97,14.76 32.97,32.98 0,18.22 -14.76,33 -32.97,33 -18.22,0 -33,-14.78 -33,-33 0,-18.22 14.78,-32.98 33,-32.98zm-201.11 107.84c48.71,0 88.18,39.49 88.18,88.17 0,48.72 -39.47,88.2 -88.18,88.2 -48.7,0 -88.18,-39.48 -88.18,-88.2 0,-48.68 39.48,-88.17 88.18,-88.17zm-243.92 92.31c27.68,0 50.11,22.44 50.11,50.12 0,27.68 -22.43,50.11 -50.11,50.11 -27.68,0 -50.12,-22.43 -50.12,-50.11 0,-27.68 22.44,-50.12 50.12,-50.12zm-101.51 268.66c24.53,0 44.41,19.89 44.41,44.41 0,24.51 -19.88,44.4 -44.41,44.4 -24.52,0 -44.4,-19.89 -44.4,-44.4 0,-24.52 19.88,-44.41 44.4,-44.41z"/>
  <g id="_1164111537360">
   <path class="fil10" d="M7427.49 1948.92c-391.44,-173.99 -777.25,-345.48 -1203.92,-429.93 -206.09,-40.79 -415.75,-64.42 -625.66,-73.14 -222.88,-9.26 -446.61,-1.9 -667.17,19.44 -196.11,19.18 -387.24,51.72 -575.28,96.83 -187.7,45.03 -373.13,102.88 -558.09,172.74 -40.58,15.33 -81.15,30.7 -121.72,46.06 -29.89,11.32 -59.77,22.64 -89.67,33.95l-41.04 15.52 -27.09 -34.49c-81.7,-103.97 -148.74,-183.95 -221.38,-254.23 -72.9,-70.53 -153.91,-134.02 -264.24,-205.75 -163.12,-106.04 -333.15,-189.37 -510.26,-253.12 -177.28,-63.81 -362.38,-108.2 -555.33,-136.27 -104.22,-15.16 -215.86,-21.76 -327.25,-20.69 -115.28,1.1 -231.62,10.52 -340.33,27.24 -111.97,17.22 -220.92,45.76 -327.4,81.49 -72.7,24.4 -144.83,52.36 -216.35,82.51 71.24,47.3 138.53,94.97 203.48,146.51 93.36,74.09 180.73,155.32 266.21,253.51 63.02,72.38 121.21,149.24 176.4,229 46.02,66.5 88.91,133.46 130.26,200.74l317.56 -98.49 -190.22 283.26c16.43,28.14 28.84,49.19 41.27,70.28 52.37,88.89 105.12,178.39 153.76,269.24 41.48,77.47 70.14,156.34 90.45,237.1 19.94,79.32 31.92,160.99 40.21,245.27 4.35,44.25 7.14,88.28 9.13,132.28 1.87,41.54 3.06,85.8 4.21,130.4l0.53 20.86 -12.94 16.84c-54.78,71.29 -104.43,143.32 -151.42,218.17 -45.77,72.91 -89.21,149.39 -132.66,231.25 -53.14,100.1 -94.93,191.28 -131.42,283.17 -36.6,92.18 -69.05,188.05 -102.95,296.09 -12.67,40.38 -25.71,83.72 -38.79,127.2 -23.62,78.5 -47.36,157.42 -73.02,232.18 -22.59,65.84 -48.16,112.84 -80.81,155.84 -31.81,41.89 -67.55,76.44 -113.34,120.53 -47.97,46.11 -106.8,101.12 -164.93,155.47 -192.17,179.71 -375.99,351.6 -540.31,570.22 -83.15,110.61 -164.4,224.92 -231.64,345.37 -66.13,118.46 -118.8,243.09 -146.34,376.39l-0.05 -0.01c-5.18,25.57 -8.87,49.79 -11.5,73.04 70.61,-74.51 136.98,-138.78 207.68,-198.02 107.04,-89.69 223.87,-167.9 379.74,-252.52 106.31,-57.71 216.23,-109.94 328.63,-154.18 105.42,-41.49 213.17,-76.18 322.38,-102.09l59.25 -14.05 13.11 59.71c3.68,16.81 9.81,47.35 15.7,76.65 14.65,73.01 27.3,136.01 59.16,216.61 46.76,118.27 108.19,227.82 181.42,328.87 78.31,108.1 169.84,206.46 271.12,295.39 194.8,170.46 412.76,306.82 645.66,411.58 246.76,111 509.93,186.36 779.83,229.07l-0.01 0.04c292.57,45.97 566.03,55.26 838.3,36.35 272.47,-18.92 544.11,-66.28 832.72,-133.52 96.31,-22.5 190.03,-46.62 283.36,-73.37 94.2,-27 186.36,-56.12 278.5,-88.32l46.56 -16.26 33.5 57.57c53.6,92.16 107.84,185.4 168.95,273.18l-0.04 0.03c43.71,62.12 98.05,127.83 156.07,191.36 64.61,70.74 133.74,138.64 197.83,195.77 97.56,86.97 196.74,153.13 302.39,206.62 106.84,54.09 220.93,95.7 346.93,132.95 144.65,42.76 278.5,64.93 420.63,83.5l-39.52 -44.81c-116.63,-132.18 -233.81,-265.01 -340.8,-394.2l0 -0.24c-118.9,-144.95 -210.82,-287.46 -287.78,-438 -76.52,-149.67 -137.94,-306.82 -196.3,-482.03 -40.62,-121.98 -32.81,-149.27 -4.91,-246.66l10.11 -35.31c35.75,-129.49 69.14,-245.34 111.87,-359.12 43.17,-114.96 95.26,-226.25 167.7,-344.41 80.5,-131.32 169.66,-257.18 264.09,-379.04 94.99,-122.58 193.84,-239.52 293.93,-353.16l0.23 0c30.56,-34.64 58.97,-66.4 85.82,-96.08 -124.9,33.32 -249.5,69.72 -371.24,112.06 -184.03,64.01 -362.3,141.75 -526.52,243.25 -89.23,55.16 -169.1,117.66 -240.68,188.51 -71.62,70.89 -134.92,150.13 -191,238.75 -5.81,9.18 -20.41,32.94 -35.01,56.71l-0.11 -0.07 -60 97.8 -45.85 -105.03c-46.4,-106.3 -92.8,-212.61 -142.58,-309.69 -24.67,-48.11 -50.79,-95.15 -77.58,-139.8 -26.19,-43.65 -52.81,-84.49 -79.1,-121.26 -25.14,-35.15 -51.25,-68.05 -73.47,-96.04 -24.51,-30.88 -44.61,-56.21 -57.02,-76.41l0 -0.23 -2.35 -3.83c-10.06,-16.37 -12.52,-20.38 -27.56,-43.96l-51.41 -80.56 94.96 -10.99 20.65 -2.32c26.91,-3.01 40.34,-4.52 74.64,-11.27l0.23 0c25.61,-4.98 64.25,-11.95 102.64,-18.87 70.36,-12.68 139.76,-25.19 213.24,-43.25 163.07,-40.38 360.63,-108.5 542.83,-197.35 148.41,-72.37 285.46,-157.88 382.97,-252.24 81.62,-78.98 135.63,-162.04 160.21,-251.51 24.43,-88.95 20.32,-186.56 -14.08,-295.36 -5.86,-18.52 -12.13,-35.02 -19.07,-51.15 -8.31,-19.32 -15.98,-35.34 -24.1,-51.58l-38.9 -77.85 86.67 -8.32c88.37,-8.48 163.25,-20.25 236.7,-38.88 72.85,-18.47 144.08,-43.77 225.62,-79.41 160.37,-70.45 334.09,-171.77 499.78,-286.99 172.15,-119.72 334.43,-253.61 463.04,-382.77 59.67,-60.13 137.99,-147.13 198.06,-237.5 41.32,-62.17 73.51,-124.87 83.25,-178.79 6.31,-34.96 -4.31,-58.06 -22.96,-74.97 -25.52,-23.13 -68.16,-41.19 -109.45,-58.48 -7.53,-3.15 -19.66,-8.06 -31.77,-12.96l-9.92 -4.01c-102.35,-41.64 -194.72,-77.4 -287.06,-113.15 -134.36,-52.02 -268.68,-104.02 -400.44,-160.03 -98.88,-42.08 -209.16,-91.1 -319.02,-139.93z"/>
   <path class="fil11" d="M4303.73 2281.66c118.4,-11.36 236.81,-22.73 336.19,-26.3 99.38,-3.56 179.74,0.67 245.29,13.35 65.55,12.69 116.31,33.84 164.94,65.56 48.64,31.72 95.16,74.01 141.68,116.3 -73.59,0 -147.17,0 -206.38,1.69 -59.22,1.69 -104.05,5.08 -148.88,8.46 74.44,21.99 148.87,43.98 214.01,74.86 65.13,30.87 120.95,70.63 179.74,116.72 58.79,46.1 120.54,98.55 182.71,158.6 62.17,60.06 124.76,127.72 169.59,174.24 44.83,46.52 71.9,71.9 110.39,101.08 38.48,29.18 88.39,62.17 128.99,85.43 40.6,23.26 71.9,36.8 103.19,50.33 -36.37,1.69 -72.74,3.38 -132.8,-11 -60.05,-14.37 -143.79,-44.83 -247.41,-90.08 -103.62,-45.25 -227.11,-105.31 -324.81,-143.37 -97.7,-38.06 -169.59,-54.13 -224.15,-64.71 -54.56,-10.57 -91.78,-15.64 -129,-20.72 41.41,-11.45 82.82,-22.9 124.23,-34.35 3.21,-0.76 6.42,-1.53 9.63,-2.29 -71.69,-7.24 -143.37,-14.48 -235.46,-13.87 -92.1,0.61 -204.6,9.06 -312.87,40.36 -108.27,31.3 -212.31,85.43 -288.01,145.49 -75.7,60.05 -123.07,126.03 -150.56,183.54 -27.49,57.52 -35.11,106.58 -38.07,165.79 -2.96,59.21 -1.27,128.57 15.15,195.79 16.41,67.21 47.54,132.29 82.13,192.05 34.59,59.76 72.64,114.21 110.69,168.67 -6.57,-52.88 -13.13,-105.75 -11.77,-171.01 1.36,-65.26 10.64,-142.91 27.12,-164.82 16.48,-21.91 40.17,11.93 344.75,94.61 304.58,82.68 890.07,214.21 1267.32,281.45 377.25,67.25 546.28,70.21 668.43,47.16 122.15,-23.05 197.43,-72.11 251.57,-130.9 54.13,-58.78 87.12,-127.29 138.72,-167.05 51.59,-39.75 121.8,-50.75 257.56,-92.62 135.76,-41.87 337.08,-114.61 534.16,-221.61 197.09,-107 389.94,-248.26 527.39,-363.71 137.46,-115.46 219.5,-205.12 271.95,-274.06 52.44,-68.93 75.28,-117.15 72.32,-137.02 -2.96,-19.88 -31.72,-11.42 -118.42,9.72 -86.7,21.15 -231.34,54.98 -413.63,69.78 -182.28,14.81 -402.2,10.58 -587.87,-5.49 -185.66,-16.07 -337.07,-43.99 -485.94,-71.05 -148.87,-27.07 -295.21,-53.29 -402.63,-100.24 -107.43,-46.94 -175.94,-114.61 -286.33,-185.66 -110.38,-71.05 -262.63,-145.48 -433.08,-200.89 -170.44,-55.4 -359.06,-91.77 -530.77,-107.84 -171.71,-16.07 -326.5,-11.84 -485.52,31.48 -159.01,43.32 -322.25,125.74 -485.48,208.15zm-3194.67 -1117.68c71.05,61.75 142.11,123.5 205.12,186.09 63.02,62.59 118,126.03 161.98,186.93 43.99,60.9 76.98,119.26 98.12,161.98 21.15,42.71 30.45,69.78 39.76,96.85 96.43,-62.6 192.85,-125.19 249.1,-161.56 56.25,-36.37 72.33,-46.52 87.97,-48.21 15.65,-1.69 30.88,5.07 50.76,22.41 19.87,17.34 44.4,45.26 65.55,70.21 21.15,24.95 38.91,46.94 47.79,67.24 8.88,20.3 8.88,38.91 -20.3,92.2 -29.18,53.29 -87.55,141.26 -124.76,200.46 -37.22,59.21 -53.29,89.66 -62.6,113.77 -9.3,24.11 -11.84,41.87 -2.11,61.75 9.72,19.87 31.72,41.87 68.93,68.51 37.22,26.65 89.67,57.94 155.22,91.35 65.55,33.41 144.22,68.94 200.05,97.7 55.82,28.76 88.81,50.75 120.11,79.08 31.29,28.34 60.9,63.02 78.24,97.28 17.34,34.25 22.41,68.09 27.49,101.92 -43.99,33.83 -87.97,67.67 -141.68,115.88 -53.71,48.21 -117.15,110.81 -168.33,166.21 -51.17,55.4 -90.08,103.62 -119.71,142.3 -29.63,38.67 -49.98,67.82 -70.33,96.97 -14.75,8.91 -29.51,17.83 -47.67,-64.84 -18.16,-82.66 -39.73,-256.9 -64.47,-393.08 -24.74,-136.18 -52.66,-234.3 -92.41,-329.88 -39.76,-95.58 -91.35,-188.62 -125.19,-249.53 -33.83,-60.9 -49.9,-89.65 -45.67,-116.72 4.22,-27.07 28.76,-52.44 54.98,-90.08 26.22,-37.64 54.13,-87.55 57.09,-116.73 2.96,-29.18 -19.03,-37.64 -61.75,-31.3 -42.71,6.35 -106.15,27.49 -153.1,30.03 -46.94,2.54 -77.39,-13.53 -98.54,-38.91 -21.14,-25.37 -32.99,-60.05 -92.2,-142.1 -59.21,-82.05 -165.79,-211.46 -251.22,-318.04 -85.43,-106.57 -149.71,-190.31 -169.59,-246.56 -19.88,-56.25 4.65,-85.01 32.14,-89.66 27.49,-4.65 57.94,14.8 76.97,33.83 19.04,19.03 26.65,37.64 34.26,56.25zm5682.66 1779.14c51.13,-16.38 102.26,-32.76 160.71,-47.72 58.45,-14.96 124.22,-28.49 176.79,-35.63 52.58,-7.13 91.97,-7.87 131.35,-8.61 38.7,43.77 77.4,87.54 117.97,135.28 40.58,47.74 83.03,99.44 115.89,139.04 32.85,39.59 56.11,67.08 79.37,94.57 -21.57,-5.92 -43.13,-11.84 -61.92,-16.14 -18.78,-4.29 -34.77,-6.96 -48.8,-8.75 -14.04,-1.8 -26.12,-2.72 -38.2,-3.64 -49.32,-5.29 -98.65,-10.58 -137.9,-40.3 -39.25,-29.71 -68.44,-83.84 -106.71,-122.75 -38.28,-38.91 -85.65,-62.59 -151.92,-74.28 -66.27,-11.69 -151.45,-11.38 -236.63,-11.07zm-1534.72 1628.17c84.58,1.69 169.17,3.38 249.95,-3.38 80.78,-6.77 157.75,-22 237.26,-39.34 79.51,-17.34 161.56,-36.79 208.93,-54.55 47.37,-17.77 60.05,-33.84 129.41,-42.72 69.37,-8.88 195.4,-10.57 314.66,-25.8 119.27,-15.22 231.77,-43.98 344.27,-72.74 -21.99,52.44 -43.99,104.89 -129,169.59 -85,64.71 -233.03,141.68 -421.66,210.62 -188.62,68.93 -417.85,129.84 -596.75,163.25 -178.9,33.41 -307.47,39.33 -378.52,13.11 -71.05,-26.22 -84.59,-84.59 -71.9,-145.49 12.69,-60.9 51.6,-124.34 90.51,-187.78 7.61,5.08 15.22,10.15 22.84,15.23zm-5022.86 1618.42c53.1,-64.75 106.19,-129.49 179.68,-198.66 73.49,-69.16 167.38,-142.75 260.85,-212.53 93.46,-69.79 186.51,-135.76 304.93,-207.24 118.42,-71.47 262.22,-148.44 397.55,-214.42 135.34,-65.97 262.22,-120.95 385.71,-171.7 123.5,-50.75 243.61,-97.28 362.03,-141.68 118.42,-44.41 235.15,-86.7 311.28,-121.8 76.13,-35.11 111.65,-63.02 145.91,-91.78 34.26,-28.76 67.24,-58.36 94.15,-90.59 26.91,-32.23 47.74,-67.08 60.85,-114.44 13.11,-47.37 18.5,-107.26 46.58,-119.44 28.07,-12.17 78.82,23.35 120.27,63.11 41.44,39.75 73.59,83.73 96.74,127.7 23.16,43.96 37.33,87.9 44.05,124.31 6.72,36.42 5.99,65.32 3.98,110.6 -2.01,45.27 -5.3,106.93 -22.59,171.58 -17.3,64.66 -48.59,132.33 -84.12,192.39 -35.52,60.05 -75.28,112.49 -115.04,158.17 -39.75,45.67 -79.51,84.58 -119.26,123.49 2.54,93.05 5.07,186.09 14.38,278.71 9.3,92.62 25.37,184.82 47.37,270.25 21.99,85.43 49.9,164.09 85.43,238.52 35.52,74.44 78.66,144.64 128.99,205.12 50.33,60.48 107.85,111.23 178.48,161.13 70.63,49.91 154.37,98.97 257.56,141.26 103.2,42.29 225.85,77.82 345.96,100.66 120.11,22.83 237.68,32.98 375.98,38.48 138.3,5.5 297.32,6.35 454.65,0.85 157.33,-5.5 312.97,-17.34 447.04,-34.26 134.07,-16.92 246.57,-38.91 363.72,-63.86 117.15,-24.95 238.95,-52.87 340.03,-79.09 101.08,-26.22 181.44,-50.75 257.67,-75.86 76.24,-25.11 148.36,-50.81 220.47,-76.5 -71.9,-14.38 -143.8,-28.76 -215.69,-43.14 13.31,-85.96 26.63,-171.91 51.05,-274.52 24.42,-102.61 59.95,-221.88 95.9,-323.38 35.95,-101.5 72.32,-185.24 117.57,-261.79 45.25,-76.55 99.39,-145.91 163.68,-212.73 64.28,-66.82 138.72,-131.1 217.38,-185.66 78.67,-54.56 161.56,-99.39 227.54,-134.07 65.97,-34.68 115.03,-59.21 167.9,-84.58 52.87,-25.38 109.54,-51.6 166.21,-77.82 -14.38,-5.07 -28.76,-10.15 -128.15,13.53 -99.38,23.69 -283.78,76.13 -423.77,133.65 -139.99,57.52 -235.57,120.11 -333.69,197.08 -98.12,76.97 -198.78,168.32 -271.52,252.06 -72.75,83.74 -117.58,159.87 -171.71,257.56 -54.14,97.7 -117.58,216.96 -155.64,318.46 -38.06,101.5 -50.75,185.24 -80.36,235.15 -29.6,49.9 -76.13,65.97 -135.34,70.2 -59.2,4.23 -131.1,-3.38 -268.98,-24.53 -137.87,-21.14 -341.72,-55.82 -484.25,-82.89 -142.53,-27.07 -223.73,-46.52 -322.7,-84.16 -98.96,-37.64 -215.69,-93.47 -317.62,-147.18 -101.92,-53.71 -189.05,-105.31 -255.45,-170.86 -66.4,-65.55 -112.07,-145.06 -132.8,-243.18 -20.72,-98.12 -16.49,-214.84 2.96,-306.62 19.46,-91.77 54.14,-158.59 82.9,-209.35 28.76,-50.75 51.6,-85.43 96.58,-115.47 44.98,-30.05 112.1,-55.47 154.12,-79.11 42.02,-23.65 58.94,-45.52 26.41,-64.88 -32.53,-19.35 -114.51,-36.18 -198.94,-59.26 -84.43,-23.08 -171.32,-52.4 -204.49,-89.7 -33.17,-37.29 -12.64,-82.57 38.46,-162.54 51.09,-79.97 132.75,-194.64 214.4,-309.32 -86.73,-43.5 -173.46,-87 -256.16,-134.97 -82.69,-47.97 -161.36,-100.41 -229.94,-160.15 -68.58,-59.73 -127.08,-126.75 -179.1,-196.53 -52.02,-69.78 -97.56,-142.33 -126.48,-189.94 -28.93,-47.61 -41.23,-70.3 -54.34,-66.91 -13.11,3.38 -27.03,32.83 -20.88,93.23 6.15,60.4 32.37,151.75 61.56,226.19 29.18,74.43 61.32,131.95 139.99,204.27 78.66,72.32 203.85,159.44 257.78,203.45 53.93,44.02 36.6,44.92 19.28,45.82 -129.01,-38.12 -258.02,-76.24 -373.7,-121.94 -115.67,-45.71 -218.02,-99 -303.45,-163.7 -85.44,-64.71 -153.95,-140.84 -207.24,-214.85 -53.29,-74.01 -91.35,-145.91 -118.84,-202.58 -27.49,-56.67 -44.41,-98.11 -61.33,-139.56 -142.95,157.33 -285.9,314.65 -460.99,502.01 -175.09,187.35 -382.33,404.73 -513.01,542.61 -130.69,137.87 -184.82,196.23 -297.32,297.31 -112.5,101.08 -283.37,244.87 -433.93,377.25 -150.56,132.37 -280.82,253.33 -381.06,394.16 -100.23,140.83 -170.44,301.55 -212.73,408.97 -42.29,107.42 -56.67,161.55 -55.83,177.62 0.85,16.08 16.92,-5.92 35.2,-29.79 18.29,-23.88 38.79,-49.64 59.28,-75.4z"/>
   <path class="fil12" d="M1047.11 1195.38c175.97,-44.88 296.7,-67.39 479.35,-71.14 512.9,-9.07 1005.23,118.76 1450.46,373.64 144.02,82.44 265.03,174.55 369.97,304.24 19.78,24.86 38.7,50.35 57.63,75.86 28.76,-11.85 57.52,-23.69 86.28,-35.53 -270.85,-353.57 -457.41,-529.88 -885.52,-682.78 -338.21,-120.8 -724.52,-172.49 -1082.84,-153.53 -209.17,11.72 -355.03,50.22 -551.45,113.11 25.37,25.38 50.75,50.75 76.12,76.13zm1979.89 2355.13c-8.35,27.7 -16.81,74.23 -20.26,142.54 -3.45,68.31 -1.9,158.41 26.01,246.38 27.91,87.97 82.19,173.8 151.62,245.9 69.43,72.1 154.02,130.46 227.61,172.75 73.59,42.3 96.36,63.42 147.11,79.52 50.74,16.1 114.26,32.14 145.55,40.59 -77.82,-58.36 -155.63,-116.72 -219.92,-177.62 -64.29,-60.9 -115.04,-124.34 -166.63,-200.47 -51.6,-76.13 -104.04,-164.94 -138.3,-240.22 -34.26,-75.28 -50.33,-137.03 -68.62,-193.91 -18.29,-56.88 -41.98,-122.22 -62.49,-174.25 -5.27,10.86 -13.32,31.09 -21.68,58.79zm1139.02 232.34c80.36,32.77 160.72,65.55 222.57,92.19 61.85,26.65 105.2,47.16 126.88,57.41 21.67,10.26 21.67,10.26 -24.11,33.84 -45.78,23.58 -137.34,70.73 -266.87,180.59 -129.52,109.85 -297,282.4 -442.06,444.38 -145.07,161.98 -267.72,313.39 -345.42,405.44 -77.71,92.05 -110.48,124.75 -143.24,157.45 -16.91,20.96 -33.81,41.92 -50.72,62.88 46.5,-19.83 93,-39.65 140.78,-57.6 47.78,-17.95 96.84,-34.02 157.74,-45.01 60.9,-11 133.64,-16.92 198.4,-17.87 64.77,-0.95 121.54,3.06 204.17,28.97 82.63,25.9 191.12,73.69 279.45,130.89 88.34,57.2 156.54,123.81 229.55,198.14 73.01,74.33 150.83,156.38 213.84,234.19 63.02,77.82 111.23,151.41 159.45,225 54.25,-103.69 108.51,-207.39 159.05,-328.98 50.54,-121.59 97.36,-261.07 138.81,-386.95 41.44,-125.88 77.51,-238.14 116.63,-337.31 39.12,-99.18 81.3,-185.27 119.72,-250.3 38.43,-65.04 73.11,-109.02 99.34,-139.47 26.22,-30.45 43.98,-47.37 61.74,-64.29 65.13,22 130.27,43.99 215.27,61.33 85.01,17.34 189.9,30.02 290.13,35.1 100.24,5.08 195.82,2.54 289.29,-9.73 93.46,-12.26 184.82,-34.25 270.25,-83.74 85.43,-49.48 164.94,-126.45 211.89,-213.57 46.94,-87.12 61.32,-184.4 57.94,-246.57 -3.39,-62.16 -24.53,-89.23 -65.98,-80.35 -41.45,8.88 -103.19,53.71 -188.63,100.23 -85.43,46.52 -194.54,94.74 -338.76,96.01 -144.22,1.26 -323.54,-44.41 -483.83,-77.82 -160.29,-33.41 -301.55,-54.56 -451.62,-72.92 -150.07,-18.37 -308.96,-33.95 -456.13,-85.12 -147.18,-51.17 -282.66,-137.94 -388.04,-182.59 -105.38,-44.65 -180.66,-47.19 -233.53,-39.58 -52.86,7.61 -83.31,25.38 -93.57,56.36 -10.25,30.97 -0.32,75.17 9.62,119.37zm543.7 -593.59c11.05,-7.54 37.66,-21.25 64.27,-34.95 47.83,-7.34 95.65,-14.68 144.52,-15.86 48.86,-1.19 98.77,3.78 162.42,25.51 63.65,21.73 141.05,60.21 209.98,101.03 68.94,40.81 129.42,83.95 189.9,127.09 -44.41,19.03 -88.82,38.06 -139.36,64.7 -50.54,26.65 -107.21,60.9 -159.68,95.56 -52.46,34.66 -100.73,69.72 -148.99,104.78 -18.98,27.96 -37.96,55.91 -8.76,93.99 29.21,38.09 106.6,86.3 306.01,119.5 199.42,33.2 520.84,51.39 710.53,82.9 189.68,31.5 247.62,76.33 328.4,73.79 80.78,-2.53 184.4,-52.44 254.6,-109.74 70.21,-57.31 107.01,-122.02 119.69,-168.33 12.69,-46.31 1.27,-74.22 -72.53,-97.27 -73.8,-23.05 -209.98,-41.23 -364.78,-74.86 -154.79,-33.62 -328.19,-82.68 -471.14,-142.73 -142.95,-60.06 -255.45,-131.11 -368.37,-189.89 -112.92,-58.79 -226.27,-105.31 -317.41,-136.61 -91.14,-31.29 -160.08,-47.37 -238.74,-41.44 -78.67,5.92 -167.06,33.83 -218.02,60.05 -50.97,26.22 -64.5,50.75 -55.69,62.65 8.82,11.9 39.98,11.17 53.3,10.11 13.32,-1.06 8.81,-2.44 19.85,-9.98zm-1965 -706.79c-51.95,55.07 -59.22,69.07 -66.48,83.07 -8.81,22.45 -17.62,44.9 -26.43,67.35 271.08,-234.93 465.63,-388.39 793.14,-545.4 400.66,-192.09 858.45,-344.43 1296.96,-417.64 474.31,-78.68 1085.8,-89.83 1555.18,20.7 276.04,65.01 535.14,160.59 787.2,290.39 159.48,82.13 312.81,168.35 474.87,247 203.52,98.77 412.77,185.44 615.52,283.87 77.12,37.43 142.87,73.96 215.22,119.17 49.06,-33.83 98.12,-67.67 147.18,-101.5 -314.66,-153.94 -629.32,-307.89 -964.27,-466.91 -334.96,-159.02 -690.23,-323.11 -983.74,-422.07 -293.51,-98.97 -525.28,-132.8 -861.93,-139.57 -336.65,-6.76 -778.19,13.54 -1163.9,82.89 -385.71,69.36 -715.6,187.78 -968.51,304.51 -252.91,116.73 -428.85,231.76 -565.14,337.35 -136.28,105.58 -232.92,201.72 -284.87,256.79z"/>
   <polygon class="fil13" points="4017.36,4311.49 3616.42,4930.65 4134.09,5022 4763.4,5468.6 5108.51,4829.14 5539.9,4164.31 4859.83,3864.88 4397.99,4006.98 "/>
   <polygon class="fil14" points="5682.01,2098.75 5362.27,2245.93 5656.63,2743.29 5915.46,2854.94 6448.35,2382.96 "/>
   <path class="fil15" d="M3804.16 4210.31c-243.7,-101.56 -488.8,-197.44 -650.4,-419.07 -97.43,-133.61 -125.52,-302.62 -116.81,-464.9 5.46,-101.7 28.39,-185.69 56.55,-282.55 4.59,-15.81 2.28,-1.73 2.86,7.52 17.88,282.73 44.07,488.01 215.18,725.7 135.15,187.74 301.2,297.27 487.58,428.16l9.73 6.84 -4.69 -1.7zm1013.83 -278.82c-69.15,4.87 -138.3,9.73 -214.06,29.71 -75.76,19.98 -158.13,55.09 -240.6,106.26 -82.47,51.17 -165.04,118.42 -247.04,203.43 -81.99,85 -163.41,187.77 -244.82,290.54 18.82,31.72 37.64,63.44 47.47,101.29 9.84,37.86 10.68,81.84 6.03,118.21 -4.65,36.37 -14.8,65.13 -26.16,88.45 -11.35,23.31 -23.92,41.19 -36.48,59.06 78.54,3.27 157.08,6.55 228.49,20.02 71.41,13.48 135.7,37.17 197.87,67.19 62.17,30.03 122.23,66.4 171.79,104.74 49.57,38.34 88.65,78.65 127.73,118.95 19.46,-43.64 38.93,-87.28 64.06,-129.05 25.13,-41.78 55.93,-81.69 91.79,-112.59 35.86,-30.89 76.78,-52.78 117.96,-64.15 41.19,-11.36 82.63,-12.21 124.08,-13.05 18.93,-80.47 37.85,-160.93 76.76,-248.05 38.91,-87.12 97.8,-180.9 148.4,-243.87 50.59,-62.96 92.88,-95.1 124.27,-118.47 31.39,-23.38 51.86,-37.98 72.34,-52.58 -74.61,27.29 -149.22,54.58 -228.88,78.11 -79.65,23.53 -164.34,43.3 -257.44,50.23 -93.1,6.93 -194.6,1 -264.75,-18.19 -70.16,-19.19 -108.96,-51.65 -128.79,-87.75 -19.82,-36.11 -20.67,-75.86 -5.44,-115.2 15.22,-39.33 46.52,-78.24 83.42,-109.9 36.9,-31.67 79.41,-56.09 115.67,-75.44 36.27,-19.35 66.3,-33.62 96.33,-47.9zm-294.99 -477.68c8.46,-27.07 16.91,-54.13 45.25,-97.27 28.34,-43.14 76.55,-102.35 126.88,-146.33 50.33,-43.99 102.77,-72.75 157.75,-89.24 54.98,-16.49 112.5,-20.72 177.21,-13.11 64.71,7.61 136.61,27.07 209.35,55.4 72.74,28.34 146.33,65.56 225.42,111.65 79.09,46.1 163.68,101.08 248.68,148.45 85.01,47.37 170.44,87.12 253.34,119.26 82.89,32.15 163.25,56.68 244.87,77.4 81.63,20.72 164.52,37.64 238.11,50.33 73.59,12.68 137.88,21.14 181.55,26.64 43.66,5.5 66.71,8.03 89.76,10.57 -18.82,34.68 -37.64,69.36 -62.7,102.35 -25.05,32.99 -56.35,64.28 -83.42,88.39 -27.07,24.11 -49.9,41.02 -71.05,52.02 -21.15,11 -40.6,16.07 -60.06,21.15 6.35,-25.17 12.69,-50.33 16.18,-76.03 3.49,-25.69 4.12,-51.91 4.75,-78.13 -58.57,-2.75 -117.14,-5.5 -203.53,-20.83 -86.38,-15.33 -200.57,-43.24 -298.27,-65.23 -97.7,-21.99 -178.9,-38.07 -252.49,-46.1 -73.59,-8.04 -139.56,-8.04 -195.81,-3.81 -56.25,4.23 -102.77,12.69 -137.14,21.36 -34.36,8.67 -56.56,17.55 -78.77,26.43 -5.71,-29.18 -11.42,-58.36 -13.2,-89.84 -1.79,-31.48 0.35,-65.25 2.49,-99.02 -20.54,2.05 -41.07,4.1 -63.82,13.48 -22.74,9.38 -47.7,26.09 -78.49,47.18 -30.79,21.08 -67.43,46.55 -104.06,72.01 -9.14,-15.66 -18.27,-31.32 -24.8,-53.46 -6.53,-22.15 -10.46,-50.77 -9.88,-79.04 0.57,-28.27 5.65,-56.18 12.09,-78.24 6.44,-22.07 14.24,-38.28 22.04,-54.49 -11.61,-4.09 -23.22,-8.18 -45.3,0.35 -22.09,8.53 -54.66,29.68 -83.2,55.48 -28.55,25.8 -53.08,56.25 -68.73,76.55 -15.65,20.3 -22.41,30.45 -29.18,40.6 -9.31,-22.84 -18.61,-45.68 -24.95,-70.21 -6.35,-24.53 -9.73,-50.75 -9.31,-85.43 0.42,-34.68 4.65,-77.82 8.88,-120.95 -22.2,-2.54 -44.4,-5.08 -73.16,8.03 -28.76,13.11 -64.08,41.87 -97.38,68.09 -33.31,26.22 -64.61,49.91 -95.9,73.59zm1018.36 -1097.32c34.54,95.7 121.66,353.1 214.09,395.42 140.26,64.22 406.87,-158.49 493.87,-258.67 18.53,-21.33 40.26,-44.81 23.47,-72.37l-1.99 -3.27c-59.46,44.86 -99.89,84.22 -177.55,71.93l-7.89 -1.25c-32.38,70.98 -55.89,129.04 -146.74,122.18 -150.07,-11.33 -179.25,-241.73 -34.45,-288.51l3.56 -1.14c-40.6,-46.95 -81.2,-93.89 -121.81,-140.84 -59.08,43.6 -118.16,87.21 -158.92,116.63 -40.76,29.41 -63.2,44.65 -85.64,59.89zm-4912.04 -1249.71c211.53,134.42 384.28,258.74 550.49,449.66 124.25,142.72 227.21,299.82 324.97,461.32 66.82,-20.73 133.64,-41.45 200.46,-62.18 -38.9,57.94 -77.81,115.89 -116.72,173.83 70.95,122.11 146.3,245.56 212.83,369.82 77.65,145.04 107.88,297.64 123.86,460.12 8.47,86.1 10.89,171.84 13.11,258.24 -113.24,147.36 -202.72,293.75 -289.7,457.61 -107.17,201.88 -170.63,372.97 -238.59,589.57 -37,117.93 -71.4,241.37 -111.33,357.73 -40.98,119.44 -90.53,167.58 -178.93,252.73 -253.45,243.57 -497.69,448.4 -711.57,732.94 -169.11,224.98 -330.88,465.59 -388.75,745.65 -19.45,95.84 -19.45,170.8 -19.45,245.76 227.23,-254.15 378.68,-393.99 682.43,-558.88 200,-108.58 414.52,-197.82 636.26,-250.41 24.73,112.72 33.87,191.82 77.67,302.62 100.15,253.32 265.25,468.35 468.93,647.21 410.55,359.25 919.92,569.94 1455.46,654.7 595.28,93.57 1111.1,37.94 1693.96,-97.84 195.15,-45.59 378.65,-97.42 567.95,-163.56 57.34,98.52 115.03,198.68 180.17,292.24 95.58,135.91 238.95,286.92 363.22,397.7 202.95,180.91 413.68,275.77 672.27,352.22 201.43,59.54 379.67,79.9 586.02,104.81 -160.47,-183.91 -327.33,-368.21 -482.72,-555.86 -232.15,-283 -358.69,-555.99 -473.54,-900.83 -39.2,-117.69 -25.56,-132.43 6.13,-247.32 70.86,-256.65 132.09,-458.45 273.01,-688.31 158.69,-258.86 351.59,-496.3 551.93,-723.77 72.81,-82.53 146.72,-163.02 221.62,-243.61 -381.16,94.53 -772.75,204.23 -1109.66,412.46 -186.47,115.27 -333.77,261.17 -450.88,446.22 -12.03,19.02 -23.81,38.2 -35.6,57.37 -46.52,-106.57 -93.04,-213.15 -144.21,-312.96 -51.18,-99.81 -107.01,-192.85 -161.14,-268.55 -54.14,-75.71 -106.58,-134.07 -128.15,-169.17 -10.04,-16.34 -10.48,-17.18 -30.61,-48.73 44.3,-5.12 56.34,-5.7 99.97,-14.29 108.23,-21.06 210.53,-36.18 318.93,-62.82 304.73,-75.46 726.07,-245.04 953.19,-464.81 178.4,-172.63 237.42,-367.92 161.58,-607.75 -12.95,-40.95 -27.88,-73.3 -46.91,-111.39 183.86,-17.65 310.87,-48.79 480.58,-122.98 335.08,-147.2 723.23,-423.21 981.32,-682.41 106.46,-107.27 270.55,-297.57 297.7,-447.9 21.44,-118.73 -76.54,-160.85 -168.24,-199.23 -14,-5.87 -28.09,-11.51 -42.15,-17.22 -228.68,-93.03 -458.69,-175.83 -686.56,-272.7 -508.56,-216.44 -987.13,-465.2 -1534.89,-573.61 -428.78,-84.86 -875.4,-96.44 -1309.92,-54.4 -397.58,38.88 -775.41,132.05 -1148.83,273.08 -70.48,26.62 -140.91,53.36 -211.38,80.01 -165.09,-210.11 -273.51,-325.75 -500.14,-473.09 -333.83,-217.05 -696.7,-341.36 -1089.7,-398.53 -217.27,-31.6 -467.95,-26.83 -684.91,6.55 -230.26,35.42 -449.36,117.78 -660.84,212.94zm6156.41 1838.26c61.75,13.96 123.49,27.92 180.17,42.08 56.67,14.17 108.27,28.55 139.56,43.99 31.3,15.43 42.3,31.93 43.99,51.59 1.69,19.67 -5.92,42.51 -23.05,64.29 -17.13,21.78 -43.77,42.5 -55.19,57.73 -13.17,17.55 -25.05,36.6 7.71,62.17 21.57,-4.23 87.02,-39.34 116.84,-50.33 29.82,-11 58.57,-19.46 94.52,-23.26 35.95,-3.81 79.09,-2.96 103.83,-2.33 11.57,0.3 14.08,0.51 30.77,0.55 -9.78,-11.07 -10.76,-12.65 -23.37,-27.62 -23.68,-28.12 -77.39,-84.79 -114.82,-123.49 -37.43,-38.7 -58.58,-59.42 -81.41,-77.39 -22.84,-17.98 -47.37,-33.2 -80.78,-43.99 -33.42,-10.78 -75.71,-17.13 -126.46,-14.38 -50.75,2.75 -109.96,14.59 -146.76,22.84 -36.79,8.25 -51.17,12.9 -65.55,17.55zm-3230.87 1489.53c-211.97,-130.9 -367.64,-231.09 -514.12,-440.2 -104.16,-148.7 -166.3,-336.21 -225.68,-506.92 3.02,153.83 -0.36,331.85 62.16,474.18 57.15,130.1 148.92,248.36 272.23,321.04 101.27,59.7 285.1,131.42 400.64,153.86l9 1.07 -4.23 -3.03zm-2114.72 1361.86c246.67,-91.24 514.31,-149.18 767.68,-224.52 287.18,-85.3 519.91,-151.6 731.45,-380.93 87.93,-96.36 104.63,-159.36 111.4,-288.37 7.43,-141.88 -9.2,-295.14 -88.16,-416.62 -78.37,-120.57 -201.58,-201.95 -346.91,-209.93 -275.64,-12.17 -546.22,149.07 -775.86,286.84 131.41,-36.4 281.38,-82.96 414.53,-105.56 199.41,-33.84 475.89,-9.56 503.36,241.13l0.92 8.35c23.2,460.69 -433.43,607.29 -794.75,711.97 -136.55,39.47 -274.36,73.77 -410.44,115.09 -67.72,20.73 -133.88,43.23 -199.76,69.26 -149.57,60.18 -309.41,134.51 -453.29,207.5 -79.56,40.36 -157.51,82.68 -234.67,127.45 -127.53,74.15 -252.81,151.74 -381.58,223.83 -16.63,9.28 -33.27,18.54 -49.92,27.79 45.6,-175.83 88.72,-282.01 199.82,-428.39 204.12,-268.95 487.3,-468.14 731.61,-698.3 31.96,-30.18 62.74,-60.8 92.58,-93.08 120.81,-131.41 137.05,-222.42 189.98,-388.38 73.02,-228.96 140.82,-433.14 248.37,-649.39 106.03,-213.19 229.39,-426.49 344.85,-635.4 4.7,-8.49 9.39,-16.98 14.08,-25.47 12.67,-324.33 4.65,-465.16 -125.79,-769.03 -54.69,-127.39 -119.44,-247.95 -188.87,-367.79 68.29,-101.81 144.84,-211.56 205.82,-317.31 9.71,-16.84 56.04,-88.92 19.6,-90.23 -42.25,-1.51 -320.73,122.74 -373.55,145.54 -184.45,-245.12 -369.32,-486.6 -562.39,-725.1 266.86,-89.75 417.01,-124.03 702.2,-115.15 363.12,11.3 679.7,88.69 1014.36,227.22 213.43,88.35 385.04,201.96 538.63,376.33 56.97,64.68 96.03,123.71 140.93,196.35 -118.65,90.12 -239.26,179 -357.27,269.56 -187.29,143.73 -279.75,248.03 -388.27,458.25 -7.71,14.93 3.09,-0.41 6.29,-3.7 179.06,-184.4 306.61,-299.92 529.04,-433.39 73.83,-44.3 149.25,-85.22 226.16,-123.92 517.64,-258.96 1083,-399.83 1657.83,-451.55 280.38,-25.03 603.21,-12.31 883.36,17.48 476.64,50.68 799.9,171.4 1225.75,380.65 34.35,16.88 68.64,33.88 102.92,50.9 182.24,90.44 359.64,172.37 546.04,253.69 157.51,68.72 316.21,135.21 472.47,206.69 58.72,26.9 87.48,42.9 138.45,84.95 -163.58,100.99 -233.75,117.46 -427.09,123.74 -675.7,20.8 -1144.93,-213.68 -1752.33,-451.06 -458.71,-179.28 -1058.45,-369.97 -1541.94,-194.11 -169.19,62.33 -300.02,156.49 -444.05,261.35 116.25,-20.77 207.07,-51.37 318.21,-86.9 238.6,-76.39 483.06,-153.58 669.15,73.97 142.1,173.77 134.34,384.96 322.22,555.18 6.04,5.47 12.09,10.67 18.29,15.95 87.49,73.46 190.05,115.59 298.38,148.15 78.66,23.38 159.49,39.08 241.4,44.76 -46.52,-41.45 -93.04,-82.89 -139.57,-124.34 79.29,-55.51 136.39,-99.15 207.59,-165.62 140.83,-131.47 185.28,-168.76 383.47,-135.16 128.33,21.76 268.61,63.69 396.25,95.57 380.87,95.13 741.16,128.72 1129.98,58.54 109.4,-19.95 210.95,-43.29 316.55,-78.87 -111.68,134.24 -199.3,232.68 -335.08,344.61 -148.93,122.78 -314.15,232.18 -479.29,331.93 -201.33,121.43 -375.6,191.46 -610.16,223.54 -75.41,10.31 -146.63,12.8 -222.66,10.17 -123.49,-4.65 -277.44,-24.95 -424.2,-61.74 -146.75,-36.8 -286.32,-90.09 -442.38,-158.6 -156.06,-68.51 -328.62,-152.25 -466.91,-211.04 -138.3,-58.78 -242.34,-92.62 -328.62,-112.5 -86.28,-19.87 -154.79,-25.79 -232.19,-21.57 -77.39,4.23 -163.67,18.61 -241.91,55.41 -78.24,36.79 -148.45,96 -207.24,156.06 -58.79,60.05 -106.15,120.95 -143.37,174.24 -37.22,53.29 -64.29,98.96 -91.35,144.64 9.3,-41.45 18.6,-82.89 54.55,-147.6 35.95,-64.71 98.55,-152.67 162.83,-219.5 64.29,-66.82 130.26,-112.49 195.39,-154.36 65.14,-41.87 129.42,-79.94 185.67,-109.12 56.25,-29.18 104.46,-49.48 152.68,-69.78 -72.75,5.08 -145.49,10.15 -230.92,28.76 -85.43,18.61 -183.55,50.75 -265.6,91.35 -82.05,40.6 -148.03,89.66 -202.58,152.68 -54.56,63.01 -97.7,139.98 -126.04,212.3 -28.33,72.32 -41.87,139.99 -46.68,217.22 -4.81,77.23 -0.91,164.02 11.26,227.83 12.17,63.81 32.6,104.63 53.03,145.46 -1.19,-50.98 -2.38,-101.95 -1.43,-144.19 0.94,-42.24 4.01,-75.74 7.08,-109.25 148.88,69.36 297.75,138.72 446.62,208.08 -327.83,108.4 -456.35,165.85 -686.94,430.41 -137.57,157.85 -271.97,335.57 -400.08,502.15 -85.39,111.02 -170.37,222.35 -255.36,333.67 226.8,-140.5 331.51,-185.96 601.41,-122.51 253.19,60.38 471.8,190.17 654.83,374.09 101.94,103 166,204.74 240.93,326.98 83.64,-117.12 125,-206.78 177.8,-340.73 71.27,-180.82 133.1,-370.99 209.75,-548.5 30.65,-70.98 62.66,-134.09 102.62,-200.22 52.87,-87.12 118.85,-180.17 166.38,-239.09 47.53,-58.92 76.62,-83.73 105.7,-108.53 16.59,2.81 33.18,5.62 49.77,8.43 109.97,-80.13 189.35,-130.11 328.5,-147.11 17.25,-2.1 32.33,-2.58 49.6,-2.6 -154.07,46.03 -203.44,64.11 -335.92,158.26 167.16,20.23 310.16,34.57 479.5,32.61 177.25,-2.04 353.65,-16.4 499.77,-128.8 56.17,-43.19 87.91,-87.02 104.81,-156.38 7.19,-30.88 8.89,-57.1 10.58,-83.32 44.79,77.97 68.86,142.49 30.77,231.07 -65.08,151.36 -356.13,324.83 -501.99,398.63 -323.03,162.68 -589.96,227.38 -950.03,238.8 -24.11,0.77 -48.23,1.38 -72.34,1.97 -1.77,4.41 -3.54,8.84 -5.29,13.3 -39.12,99.17 -75.19,211.43 -116.63,337.31 -41.45,125.88 -88.27,265.36 -138.81,386.95 -1.68,4.04 -3.36,8.06 -5.05,12.06l759.56 506.37c-45.45,125 -80.02,222.87 -105.5,354.74 -2.97,15.38 -5.83,30.78 -8.69,46.19 -232.46,-1.41 -435.8,-7.29 -666.75,-43.4 -328.73,-51.41 -759.39,-161.26 -989.02,-417.17 -120.53,-137.59 -176.44,-320.14 -164.96,-501.84 9.15,-144.74 66.39,-225.94 185.01,-306.02 15.46,-10.43 30.06,-19.17 47.2,-26.56 22.84,-9.31 35.53,-6.77 61.32,0 22.21,5.82 54.12,14.78 87.39,24.17 -80.18,-46.86 -170.62,-85.45 -241.85,-107.78 -9.41,-2.95 -18.48,-5.62 -27.27,-8.02 -104.63,47.62 -167.64,93.23 -234.49,191.73 -102.9,151.63 -106.21,326.23 -87.06,502.47 15.58,143.38 48.68,270.65 123.49,395.1 120.62,196.19 312.04,315.23 511.9,417.97 23.45,12.06 10.08,3.98 -2.91,-10.36 -116.54,-128.76 -239.41,-258.25 -292.02,-427.49 124.48,90.69 217.9,143.52 360.56,201.76 260.73,106.43 551.92,161.97 830.65,197.76 137.78,17.69 276.96,28.28 415.92,28.48 71.05,0 117.57,-3.38 164.09,-6.76 22.29,-140.54 47.07,-244.01 94.51,-378.49 16.76,-47.49 34.74,-94.72 54.2,-141.18l2.7 -6.45c81.98,-193.7 188.21,-345.12 336.64,-493.84 280.49,-281.05 611.53,-370.8 978.67,-482.26 -172.3,168.78 -304.65,305.99 -438.24,509.72 -181.21,276.34 -299.67,584.52 -386.45,902.1 -7.23,26.47 -14.07,52.94 -20.58,79.59 -24.14,99.51 -14.41,172.17 3.95,272.04 54.24,295.02 210.18,626.43 410.28,850.56 114.24,127.17 244,241.7 365.07,362.51 -196.63,-17.19 -336.61,-44.28 -513.14,-137.78 -250.93,-132.89 -468.89,-366.02 -626.18,-599.62 -93.84,-139.36 -175.85,-286.48 -258.89,-432.4 -182.06,87.53 -328.79,151.81 -525.49,205.92 -214.35,58.96 -441.93,100.56 -662.38,129.23 -284.23,36.75 -555.68,43.54 -841.57,25.28 -474.43,-30.7 -981.54,-146.08 -1393.39,-390.78 -59.74,-35.5 -116.48,-73.42 -171.95,-115.29 -260.44,-197.57 -467.09,-434.1 -597.99,-736.08 -34.3,-79.13 -59.96,-128.11 -76.63,-234.51z"/>
  </g>
 </g>
</svg>
